<svg xmlns="http://www.w3.org/2000/svg" width="41" height="40.674" viewBox="0 0 41 40.674">
  <g id="content-management" transform="translate(-2 -2)">
    <path id="Path_3546" data-name="Path 3546" d="M31.276,11.483H22.793V3H3V36.931H25.441l.226-.513a7.467,7.467,0,0,1-1.648-2.856l-2.64-.288v-4l2.645-.29a7.615,7.615,0,0,1,1.64-2.859L24.6,23.7l3.461-2,1.566,2.138a7.521,7.521,0,0,1,1.651-.177V11.483ZM16.424,15.542l-5.648,3.228a1.418,1.418,0,0,1-2.121-1.231V11.084a1.417,1.417,0,0,1,2.121-1.23l5.648,3.228A1.417,1.417,0,0,1,16.424,15.542Z" transform="translate(0.414 0.414)" fill="#fff"/>
    <path id="Path_3547" data-name="Path 3547" d="M36.361,22.812l-1.773-.194a8.626,8.626,0,0,0-1.024-1.771l.72-1.634a1.415,1.415,0,0,0-.588-1.794l-3.461-2a1.413,1.413,0,0,0-1.848.389L27.33,17.253a8.829,8.829,0,0,0-2.044-.007l-1.053-1.436a1.414,1.414,0,0,0-1.848-.389l-3.461,2a1.414,1.414,0,0,0-.587,1.8l.718,1.63a8.84,8.84,0,0,0-1.017,1.773l-1.779.2A1.413,1.413,0,0,0,15,24.217v4a1.414,1.414,0,0,0,1.26,1.405l1.773.194a8.626,8.626,0,0,0,1.024,1.771l-.72,1.634a1.415,1.415,0,0,0,.588,1.794l3.461,2a1.413,1.413,0,0,0,1.848-.389l1.058-1.443a8.829,8.829,0,0,0,2.044.007l1.053,1.436a1.415,1.415,0,0,0,1.848.389l3.461-2a1.414,1.414,0,0,0,.587-1.8l-.718-1.63a8.84,8.84,0,0,0,1.017-1.773l1.779-.2a1.413,1.413,0,0,0,1.26-1.405v-4A1.413,1.413,0,0,0,36.361,22.812Zm-1.568,4.134-1.384.151a1.412,1.412,0,0,0-1.195.98A6.14,6.14,0,0,1,30.88,30.4a1.414,1.414,0,0,0-.252,1.525l.557,1.265-1.267.731L29.1,32.812a1.418,1.418,0,0,0-1.448-.546,6.111,6.111,0,0,1-2.682-.008,1.409,1.409,0,0,0-1.448.546L22.7,33.926l-1.267-.731.56-1.27a1.415,1.415,0,0,0-.25-1.523A6.049,6.049,0,0,1,20.4,28.075a1.413,1.413,0,0,0-1.195-.98l-1.378-.15v-1.46l1.384-.151a1.412,1.412,0,0,0,1.195-.98,6.14,6.14,0,0,1,1.335-2.327,1.414,1.414,0,0,0,.252-1.525l-.557-1.265,1.267-.731.817,1.114a1.417,1.417,0,0,0,1.448.546,6.111,6.111,0,0,1,2.682.008,1.422,1.422,0,0,0,1.448-.546l.823-1.123,1.267.731-.56,1.27a1.415,1.415,0,0,0,.25,1.523,6.049,6.049,0,0,1,1.343,2.327,1.413,1.413,0,0,0,1.195.98l1.378.148Z" transform="translate(5.379 5.475)" fill="#00386c"/>
    <path id="Path_3548" data-name="Path 3548" d="M31.69,27.448a4.241,4.241,0,1,0,4.241,4.241A4.247,4.247,0,0,0,31.69,27.448Zm0,5.655A1.414,1.414,0,1,1,33.1,31.69,1.415,1.415,0,0,1,31.69,33.1Zm-11.31,2.828H4.828V4.828H21.793V11.9a1.413,1.413,0,0,0,1.414,1.414h7.069v5.655a1.414,1.414,0,1,0,2.828,0V11.9a1.425,1.425,0,0,0-.416-1l-8.48-8.48a1.421,1.421,0,0,0-1-.416H3.414A1.413,1.413,0,0,0,2,3.414V37.345a1.413,1.413,0,0,0,1.414,1.414H20.379a1.414,1.414,0,1,0,0-2.828Zm4.241-29.1,3.656,3.656H24.621Z" fill="#00386c"/>
    <path id="Path_3549" data-name="Path 3549" d="M17.31,25.5h-9.9a1.414,1.414,0,1,1,0-2.828h9.9a1.414,1.414,0,0,1,0,2.828ZM15.9,28.326a1.414,1.414,0,0,1,0,2.828H7.414a1.414,1.414,0,0,1,0-2.828ZM7.41,18.451a2.806,2.806,0,0,0,2.826.01l5.648-3.226a2.832,2.832,0,0,0,0-4.917L10.237,7.09A2.832,2.832,0,0,0,6,9.548V16A2.805,2.805,0,0,0,7.41,18.451Zm1.418-8.9.006,0,5.648,3.233L8.828,16Z" transform="translate(1.655 1.95)" fill="#00386c"/>
  </g>
</svg>
