<svg xmlns="http://www.w3.org/2000/svg" width="39.201" height="39.202" viewBox="0 0 39.201 39.202">
  <path id="export-disc-data" d="M-132.637,96.79a3.951,3.951,0,0,0-3.926,3.926v31.36a3.939,3.939,0,0,0,3.926,3.911h13.058a3.941,3.941,0,0,0,3.926-3.911v-5.9a11.013,11.013,0,0,1-5.225,1.319,11.132,11.132,0,0,1-11.1-11.1,11.141,11.141,0,0,1,11.1-11.112,10.942,10.942,0,0,1,5.225,1.324v-5.892a3.951,3.951,0,0,0-3.926-3.926Zm11.759,9.8a9.818,9.818,0,0,0-9.8,9.8,9.815,9.815,0,0,0,9.8,9.8,9.818,9.818,0,0,0,9.8-9.8,9.818,9.818,0,0,0-9.8-9.8Zm0,5.462a4.363,4.363,0,0,1,4.341,4.341,4.361,4.361,0,0,1-4.341,4.341,4.361,4.361,0,0,1-4.341-4.346A4.362,4.362,0,0,1-120.878,112.05Zm19.438.37a1.3,1.3,0,0,0-1.151.883,1.3,1.3,0,0,0,.385,1.4l.385.385h-2.237a1.311,1.311,0,0,0,.133,2.617h2.109l-.4.385a1.307,1.307,0,1,0,1.857,1.837l2.613-2.613a1.309,1.309,0,0,0,0-1.842l-2.617-2.613a1.526,1.526,0,0,0-1.081-.444Zm-6.391.035a1.309,1.309,0,0,0-1.294,1.324V119a1.309,1.309,0,1,0,2.617,0v-5.225a1.3,1.3,0,0,0-.382-.942A1.3,1.3,0,0,0-107.83,112.455Z" transform="translate(136.563 -96.785)" fill="#00386c"/>
</svg>
