<svg id="flight-information" xmlns="http://www.w3.org/2000/svg" width="34.791" height="39.518" viewBox="0 0 34.791 39.518">
  <path id="Path_3550" data-name="Path 3550" d="M42.347,4.864V5.7c0,1.021-1.188,1.8-2.741,1.8H24.99c-1.553,0-2.741-.781-2.741-1.8V4.864c0-1.021,1.188-1.8,2.741-1.8H27.73C28.187,1.681,30.014.6,32.3.6s4.111,1.021,4.568,2.462h2.741C41.159,3.062,42.347,3.843,42.347,4.864Zm-1.1,21.5a1.208,1.208,0,0,1-1.279-.24c-.274-.3-.091-.661.365-.841l.731-.24a11.966,11.966,0,0,0-3.928.661c-.183.06-2.1.961-3.745,1.742a.357.357,0,0,1,0,.42,1.089,1.089,0,0,1-1.188.36l-7.948-1.8-1,.42,5.39,2.342c.457.18.548.541.274.841a1.2,1.2,0,0,1-1.279.18l-.091-.06L23.8,31.89a1.446,1.446,0,0,1-1,0l-2.649-1.081-.548.06,3.106,2.522a2,2,0,0,0,1.553.06l8.313-3.3v-.12c0-.36.365-.6.914-.6s.914.24.914.6v4.564l1.918-.961,2.1-6.246c.091-.3.639-.541,1.1-.48a.952.952,0,0,1,.639.36l4.568-1.321a9.9,9.9,0,0,0-1.1-.6Z" transform="translate(-14.855 -0.6)" fill="#00386c"/>
  <path id="Path_3551" data-name="Path 3551" d="M44.1,8.1H39.469v.6c0,1.682-1.756,3-3.99,3H22.712c-2.234,0-3.99-1.321-3.99-3V8.1H14.094c-1.357,0-2.394.781-2.394,1.8v31.41c0,1.021,1.037,1.8,2.394,1.8h30c1.357,0,2.394-.781,2.394-1.8V9.9A2.165,2.165,0,0,0,44.1,8.1ZM22.073,12.9H29.1c.479,0,.8.24.8.6s-.319.6-.8.6H22.073c-.479,0-.8-.24-.8-.6S21.595,12.9,22.073,12.9Zm8.7,8.108H21.994c-.479,0-.8-.24-.8-.6s.319-.6.8-.6h8.778c.479,0,.8.24.8.6S31.25,21.013,30.771,21.013Zm4.947,2.222c.479,0,.8.24.8.6s-.319.6-.8.6h-7.5c-.479,0-.8-.24-.8-.6s.319-.6.8-.6Zm-9.256-5.706c-.479,0-.8-.24-.8-.6s.319-.6.8-.6H35.4c.479,0,.8.24.8.6s-.319.6-.8.6ZM17.286,12.9h1.995c.479,0,.8.24.8.6s-.319.6-.8.6H17.286c-.479,0-.8-.24-.8-.6S16.807,12.9,17.286,12.9Zm0,3.423h6.463c.479,0,.8.24.8.6s-.319.6-.8.6H17.286c-.479,0-.8-.24-.8-.6S16.807,16.328,17.286,16.328Zm0,3.483h1.995c.479,0,.8.24.8.6s-.319.6-.8.6H17.286c-.479,0-.8-.24-.8-.6S16.807,19.811,17.286,19.811Zm0,3.423H25.5c.479,0,.8.24.8.6s-.319.6-.8.6H17.286c-.479,0-.8-.24-.8-.6S16.807,23.235,17.286,23.235ZM41.7,29.361a1.464,1.464,0,0,1-.878.841l-4.947,1.622-1.6,5.165a1.425,1.425,0,0,1-.559.721l-1.756.961c-1.037.6-2.553.06-2.553-.961V34.646l-6.463,2.943a4.1,4.1,0,0,1-1.436.3,3.2,3.2,0,0,1-1.835-.541l-.08-.06-2.713-2.583a.915.915,0,0,1-.239-1.141,1.874,1.874,0,0,1,1.2-.781l.479-.06a2.1,2.1,0,0,1,1.2.18l1.835.841,2.394-1.261-3.192-1.622a1.136,1.136,0,0,1-.718-1.021,1.23,1.23,0,0,1,.8-1.021l.878-.42a2.075,2.075,0,0,1,1.357-.12l5.825,1.5c1.037-.541,3.75-1.982,4.07-2.162a9.655,9.655,0,0,1,5.267-.781,6,6,0,0,1,1.516.36c.08,0,.08.06.16.06a5.868,5.868,0,0,1,1.756,1.021A1.7,1.7,0,0,1,41.7,29.361Zm-.8-4.925H38.432c-.479,0-.8-.24-.8-.6s.319-.6.8-.6h2.474c.479,0,.8.24.8.6S41.384,24.436,40.905,24.436Zm0-3.423H33.484c-.479,0-.8-.24-.8-.6s.319-.6.8-.6h7.421c.479,0,.8.24.8.6S41.384,21.013,40.905,21.013Zm0-3.483H38.112c-.479,0-.8-.24-.8-.6s.319-.6.8-.6h2.793c.479,0,.8.24.8.6S41.384,17.529,40.905,17.529Zm0-3.423h-9.1c-.479,0-.8-.24-.8-.6s.319-.6.8-.6h9.1c.479,0,.8.24.8.6S41.384,14.106,40.905,14.106Z" transform="translate(-11.7 -3.596)" fill="#00386c"/>
</svg>
