<svg id="flight-ticket" xmlns="http://www.w3.org/2000/svg" width="39.958" height="41" viewBox="0 0 39.958 41">
  <path id="Path_3552" data-name="Path 3552" d="M73.125,61h29.707c2.823-.006,5.112-1.872,5.125-4.18V30.261a.65.65,0,0,0-.252-.484L96.351,20.216A.973.973,0,0,0,95.735,20H73.125c-2.823.006-5.112,1.872-5.125,4.18V56.82C68.014,59.128,70.3,60.994,73.125,61ZM96.587,22.419l8.486,7.136H97.86a1.422,1.422,0,0,1-.9-.3.949.949,0,0,1-.374-.732ZM69.7,24.18c.013-1.54,1.541-2.785,3.425-2.79H94.887v7.134a2.226,2.226,0,0,0,.873,1.714,3.334,3.334,0,0,0,2.1.706h8.4V56.82c-.013,1.54-1.541,2.785-3.425,2.79H73.125c-1.885,0-3.413-1.25-3.425-2.79Z" transform="translate(-68 -20)" fill="#00386c"/>
  <path id="Path_3553" data-name="Path 3553" d="M138.949,298.695a.7.7,0,0,0-.695-.695h-5.559a.7.7,0,0,0-.695.695v5.038a.7.7,0,0,0,.695.695h5.559a.7.7,0,0,0,.695-.695Zm-1.39,4.343H133.39V299.39h4.169Z" transform="translate(-124.863 -273.852)" fill="#00386c"/>
  <path id="Path_3554" data-name="Path 3554" d="M134.837,312.782l.969.57a1.185,1.185,0,0,0,1.292-.086l1.542-1.3a.578.578,0,0,0-.088-.981,1.183,1.183,0,0,0-1.326.065l-.952.8-.267-.157a1.177,1.177,0,0,0-1.321.111.582.582,0,0,0,.15.977ZM159.063,310H144.328c-.519,0-.94.311-.94.695s.421.695.94.695h14.735c.519,0,.94-.311.94-.695S159.582,310,159.063,310ZM141.4,317.3c0-.384-.421-.695-.94-.695H132.94c-.519,0-.94.311-.94.695v5.038c0,.384.421.695.94.695h7.519c.519,0,.94-.311.94-.695Zm-1.88,4.343H133.88v-3.648h5.639Z" transform="translate(-126.441 -284.809)" fill="#00386c"/>
  <path id="Path_3555" data-name="Path 3555" d="M119.64,147.853l.93.57a1.1,1.1,0,0,0,1.24-.086l1.48-1.3a.591.591,0,0,0-.085-.981,1.1,1.1,0,0,0-1.273.065l-.913.8-.257-.157a1.093,1.093,0,0,0-1.267.111.594.594,0,0,0,.144.976Zm23.251-2.792H128.749a.719.719,0,1,0,0,1.39h14.142a.719.719,0,1,0,0-1.39Zm-27.338-16.569,3.235,1.078a17.876,17.876,0,0,0,5.616.9h4.335l-2.932,4.1a.559.559,0,0,0,.014.688.98.98,0,0,0,.776.341h4.133a1.031,1.031,0,0,0,.681-.233l5.53-4.892h6.95a2.75,2.75,0,0,0,2.866-1.946,2.324,2.324,0,0,0-2.121-2.448l-.645-.135a.881.881,0,0,1-.615-.416,2.8,2.8,0,0,0-2.525-1.31H120.615l-2.335-2.88a.994.994,0,0,0-.764-.334h-1.6a.839.839,0,0,0-.916.7v6.15A.724.724,0,0,0,115.553,128.492Zm26.15-2.45a2.619,2.619,0,0,0,1.823,1.24l.645.131a.879.879,0,0,1,.8.926,1.04,1.04,0,0,1-1.077.739h-7.361a1.031,1.031,0,0,0-.681.233l-5.53,4.892h-2.2l2.932-4.11a.549.549,0,0,0-.014-.681.975.975,0,0,0-.777-.334H124.4a15.635,15.635,0,0,1-4.908-.786l-2.692-.9V125.6h24.048A.943.943,0,0,1,141.7,126.043Zm-24.9-3.653h.212l1.47,1.824H116.8Zm11.945,19.371h9.632a.719.719,0,1,0,0-1.39h-9.632a.719.719,0,1,0,0,1.39Zm9.632,6.254h-9.632a.719.719,0,1,0,0,1.39h9.632a.719.719,0,1,0,0-1.39Z" transform="translate(-110.917 -112.227)" fill="#00386c"/>
</svg>
