<svg xmlns="http://www.w3.org/2000/svg" width="39.458" height="38.06" viewBox="0 0 39.458 38.06">
  <g id="Icon_ionic-ios-folder" data-name="Icon ionic-ios-folder" transform="translate(-2.25 -4.5)">
    <path id="Path_3544" data-name="Path 3544" d="M41.708,8.367c0-.935-.828-1.617-2.008-1.617H16.95a.744.744,0,0,1-.537-.169L14.431,5l-.018-.014A2.18,2.18,0,0,0,12.89,4.5H4.425C3.21,4.5,2.25,5.224,2.25,6.117V11.3c0,.113.15.105.264.049a2,2,0,0,1,.617-.1h37.7a2,2,0,0,1,.617.1c.115.056.264.063.264-.049Z" fill="#00386c"/>
    <path id="Path_3545" data-name="Path 3545" d="M2.25,38.994c0,1.975,1.251,3.566,2.783,3.566H38.89c1.55,0,2.818-1.625,2.818-3.611V15.024A1.65,1.65,0,0,0,40.3,13.219H3.659A1.65,1.65,0,0,0,2.25,15.024Z" fill="#00386c"/>
  </g>
</svg>
