<svg xmlns="http://www.w3.org/2000/svg" width="41" height="41" viewBox="0 0 41 41">
  <path id="Icon_metro-calculator" data-name="Icon metro-calculator" d="M18.971,3.856H5.3A2.741,2.741,0,0,0,2.571,6.589V20.256A2.741,2.741,0,0,0,5.3,22.989H18.971A2.741,2.741,0,0,0,21.7,20.256V6.589a2.741,2.741,0,0,0-2.733-2.733Zm0,10.933H5.3V12.056H18.971ZM40.837,3.856H27.171a2.741,2.741,0,0,0-2.733,2.733V42.123a2.741,2.741,0,0,0,2.733,2.733H40.837a2.741,2.741,0,0,0,2.733-2.733V6.589A2.741,2.741,0,0,0,40.837,3.856Zm0,24.6H27.171V25.723H40.837Zm0-8.2H27.171V17.523H40.837ZM18.971,25.723H5.3a2.741,2.741,0,0,0-2.733,2.733V42.123A2.741,2.741,0,0,0,5.3,44.856H18.971A2.741,2.741,0,0,0,21.7,42.123V28.456a2.741,2.741,0,0,0-2.733-2.733Zm0,10.933H13.5v5.467H10.771V36.656H5.3V33.923h5.467V28.456H13.5v5.467h5.467v2.733Z" transform="translate(-2.571 -3.856)" fill="#00386c"/>
</svg>
