<svg xmlns="http://www.w3.org/2000/svg" width="38.124" height="38.124" viewBox="0 0 38.124 38.124">
  <g id="Layer_2" data-name="Layer 2" transform="translate(-3 -3)">
    <g id="save" transform="translate(3 3)">
      <path id="Path_3556" data-name="Path 3556" d="M10,17h8.472v8.472H10Z" transform="translate(4.826 12.652)" fill="#00386c"/>
      <path id="Path_3557" data-name="Path 3557" d="M39.26,15.094,29.03,4.864A6.354,6.354,0,0,0,24.54,3H17.826V15.708h10.59a2.118,2.118,0,1,1,0,4.236H15.708a2.118,2.118,0,0,1-2.118-2.118V3H9.354A6.354,6.354,0,0,0,3,9.354V34.77a6.354,6.354,0,0,0,6.354,6.354H13.59V32.652a4.236,4.236,0,0,1,4.236-4.236H26.3a4.236,4.236,0,0,1,4.236,4.236v8.472H34.77a6.354,6.354,0,0,0,6.354-6.354V19.584a6.354,6.354,0,0,0-1.864-4.49Z" transform="translate(-3 -3)" fill="#00386c"/>
    </g>
  </g>
</svg>
