<svg xmlns="http://www.w3.org/2000/svg" width="38.692" height="39.602" viewBox="0 0 38.692 39.602">
  <path id="pilot" d="M70.056,52.914c-.012-.044-1.23-4.427-1.8-7.732-.307-1.772-1.823-3.366-4.5-4.738a30.486,30.486,0,0,0-6.712-2.336,2.992,2.992,0,0,1-2.089-1.3,3.311,3.311,0,0,1-.015-2.543c.006-.013.01-.027.015-.041A7.594,7.594,0,0,0,56.784,32a15.272,15.272,0,0,0,1.65-5.817,2.563,2.563,0,0,0,1.544-1.372,2.274,2.274,0,0,0-.834-2.468.9.9,0,0,0-.2-.124l-.088-.348c1.43-.263,2.393-.613,2.767-1.369a1.776,1.776,0,0,0-.274-1.822,9.7,9.7,0,0,0-3.782-2.79,16.371,16.371,0,0,0-6.85-1.529c-5.192,0-9.716,2.558-10.674,4.391a1.613,1.613,0,0,0-.026,1.535,4.387,4.387,0,0,0,2.635,1.686l-.068.377a3.652,3.652,0,0,0-.615.642,1.891,1.891,0,0,0-.356,1.864,2.516,2.516,0,0,0,1.43,1.331,15.283,15.283,0,0,0,1.643,5.8,7.6,7.6,0,0,0,1.843,2.229.824.824,0,0,0,.035.083,3.047,3.047,0,0,1,.095,2.4,3.148,3.148,0,0,1-2.228,1.4,31.66,31.66,0,0,0-6.7,2.348c-2.686,1.367-4.2,2.957-4.51,4.724-.573,3.305-1.791,7.689-1.8,7.732a.837.837,0,0,0,.64,1.025.939.939,0,0,0,.475-.006h36.4a.94.94,0,0,0,.475.006A.836.836,0,0,0,70.056,52.914ZM55.866,39.528l-1.1,2.577-2.64-2.215,2.19-1.187A5.109,5.109,0,0,0,55.866,39.528ZM49.261,20.962l.764.6.779-.593.779.594.764-.6h2.8l-1.1.695H52.515l-.444.438,1.287.009-.95.664H51.375l-.57.543-.57-.543H49.2l-.95-.673,1.287,0-.444-.44H47.567l-1.1-.695Zm-5.707,2.854H58.149c.11.148.19.313.152.406-.021.051-.6,1.248-7.6,1.248-6.86,0-7.375-1.126-7.393-1.174C43.267,24.2,43.392,24,43.554,23.816Zm1.357,2.928a31.985,31.985,0,0,0,5.785.406,32.005,32.005,0,0,0,5.872-.426,12.9,12.9,0,0,1-1.37,4.5,4.995,4.995,0,0,1-8.925-.009A12.887,12.887,0,0,1,44.912,26.744ZM47.3,38.621l2.34,1.268L46.994,42.1l-1.111-2.676A5.2,5.2,0,0,0,47.3,38.621Zm2.831,4.9L49.141,49.5,46.706,43.8h.013a.7.7,0,0,0,.447-.159l1.9-1.583,1.167,1.261A1.193,1.193,0,0,0,50.135,43.517Zm-1.97-5.885c.042-.072.083-.145.12-.219a3.851,3.851,0,0,0,.369-2.065,7.4,7.4,0,0,0,4.238-.022,4.1,4.1,0,0,0,.456,2.239c.029.053.061.105.092.157l-2.555,1.384ZM52.5,49.424l-.982-5.908a1.208,1.208,0,0,0-.093-.194l1.211-1.309,1.942,1.629a.686.686,0,0,0,.275.139Zm10.059.546H61.145l-.412.392,1.195-.006-.882.621h-.96l-.529.5-.529-.5h-.96l-.882-.621,1.195.006-.412-.392H56.549L55.525,49.3h2.6l.71.553.724-.553.724.553.71-.553h2.6Z" transform="translate(-31.393 -14.364)" fill="#00386c"/>
</svg>
