<svg xmlns="http://www.w3.org/2000/svg" width="37.536" height="37.533" viewBox="0 0 37.536 37.533">
  <path id="route" d="M7.292.794A6.472,6.472,0,0,0,2.709,2.54,7.069,7.069,0,0,0,.794,7.685c0,2.51,1.419,5.129,2.728,7.36S6.13,19.028,6.13,19.028a1.449,1.449,0,0,0,2.313,0s1.309-1.751,2.619-3.983,2.723-4.851,2.723-7.366a7.04,7.04,0,0,0-1.91-5.14A6.463,6.463,0,0,0,7.292.794ZM17.97.865A1.444,1.444,0,0,0,16.7,2L9.491,36.592a1.442,1.442,0,0,0,1.419,1.735H36.881A1.442,1.442,0,0,0,38.3,36.592L31.07,2a1.445,1.445,0,0,0-1.4-1.135H18.117a1.451,1.451,0,0,0-.147,0Zm4.474,2.881h2.892V8.1H22.444ZM7.287,5.012A2.172,2.172,0,1,1,5.126,7.183,2.163,2.163,0,0,1,7.287,5.012Zm15.157,5.936h2.892v7.2H22.444Zm0,11.523h2.892V32.565H22.444Z" transform="translate(-0.794 -0.794)" fill="#00386c"/>
</svg>
